<svg xmlns="http://www.w3.org/2000/svg" width="202" height="92" fill="none"><rect width="202" height="92" fill="#00B097" rx="10"/><path fill="#fff" d="M48.1 32.336h1.577v8.075c0 1.159-.342 1.976-2.603 2.166-.038-.494-.209-.893-.532-1.14-.38-.247-.988-.437-2.166-.589v-.266s2.698.171 3.211.171c.399 0 .513-.133.513-.399v-8.018Zm-2.793-3.914c7.163 1.083 6.156 4.807 4.446 3.933-.589-.969-2.242-2.565-4.56-3.667l.114-.266Zm7.923-1.938h-.228l1.026-.95 1.653 1.577c-.152.152-.38.19-.836.209-1.406.931-4.123 2.109-5.947 2.736l-.19-.171c1.425-.874 3.591-2.432 4.522-3.401Zm2.09 5.852h-.228l1.007-.969 1.691 1.634c-.133.133-.361.19-.798.209-1.045 1.216-3.059 2.85-4.579 3.819l-.209-.171c1.045-1.197 2.508-3.249 3.116-4.522Zm-12.996-5.852h11.552v.532H42.495l-.171-.532Zm-2.223 5.852h16.112v.551H40.272l-.171-.551Zm28.652-7.22 2.223.646c-.076.228-.285.399-.684.399-.874 2.584-2.128 4.959-3.648 6.536l-.266-.171c.988-1.862 1.919-4.674 2.375-7.41Zm.057 7.011c4.503 2.128 3.097 5.472 1.615 4.18-.095-1.349-1.007-3.002-1.824-4.047l.209-.133Zm-.038-3.059h6.327v.57h-6.631l.304-.57Zm5.548 0h-.209l.893-.931 1.653 1.387c-.152.171-.418.285-.836.342-.171 6.251-.57 10.583-1.577 11.704-.608.646-1.406.931-2.508.931 0-.475-.095-.912-.399-1.14-.361-.266-1.33-.513-2.261-.684l.038-.323c1.007.114 2.641.247 3.135.247.399 0 .57-.057.798-.266.76-.703 1.121-5.358 1.273-11.267Zm-11.989-4.047 2.109.741c-.076.209-.304.38-.703.342-.76 1.178-1.748 2.394-2.622 3.192l-.304-.171c.513-1.007 1.083-2.641 1.52-4.104Zm2.071 2.242 2.052.817c-.095.209-.342.361-.741.304-1.007 1.558-2.755 3.705-4.389 5.244h-.399c1.235-1.786 2.679-4.427 3.477-6.365Zm-5.263 5.928c1.178-.019 3.952-.209 6.802-.437l.038.323c-1.406.342-3.306.817-5.871 1.349-.095.247-.285.38-.494.399l-.475-1.634Zm.399-5.149c4.047 1.007 3.078 3.743 1.729 2.869-.247-.95-1.159-2.052-1.919-2.698l.19-.171Zm4.845 3.173c3.933 1.805 2.66 4.56 1.349 3.477-.152-1.083-.931-2.47-1.577-3.363l.228-.114Zm.247 4.18c3.686 2.166 2.261 4.94.988 3.743-.076-1.178-.684-2.66-1.216-3.648l.228-.095Zm-2.204-1.9 1.425-.114v8.702c0 .114-.475.456-1.178.456h-.247v-9.044Zm-2.071 1.995 1.938.494c-.057.228-.266.399-.665.418-.551 1.71-1.349 3.401-2.318 4.522l-.304-.171c.589-1.349 1.121-3.363 1.349-5.263Zm18.069 1.216h14.307l.969-1.254s1.121.893 1.786 1.52c-.057.209-.228.304-.513.304H78.576l-.152-.57Zm12.882-7.448h-.171l.741-.836 1.653 1.254c-.114.152-.38.304-.722.361v4.921c-.019.133-.76.475-1.254.475h-.247v-6.175Zm-10.203 0v-.684l1.596.684h9.671v.551h-9.804v5.453c0 .152-.627.494-1.235.494h-.228v-6.498Zm8.132 5.947 2.147.209c-.057.285-.228.418-.646.475v4.617c0 1.159-.247 1.862-2.356 2.052-.057-.475-.171-.836-.475-1.064-.323-.247-.855-.437-1.843-.551v-.304s2.28.152 2.717.152c.361 0 .456-.095.456-.361v-5.225Zm-7.201 2.603c5.016.722 4.085 4.218 2.394 3.249-.342-1.102-1.52-2.375-2.565-3.059l.171-.19Zm-.342-6.118h10.412v.551H81.692v-.551Zm0 2.47h10.412v.57H81.692v-.57Zm4.389-9.044 2.185.209c-.038.266-.209.456-.684.532v8.569h-1.501v-9.31Zm-7.22 1.957h13.528l.969-1.273s1.083.874 1.748 1.52c-.057.209-.247.304-.513.304H79.032l-.171-.551Zm20.634-.646V25.724l1.786.703h-.266v5.795c0 3.439-.266 7.524-3.667 10.26l-.266-.171c2.166-2.831 2.413-6.441 2.413-10.07v-5.814Zm.836 4.446h11.571v.551h-11.571v-.551Zm0-4.446h11.742v.551h-11.742v-.551Zm-.114 9.006h11.685v.551h-11.685v-.551Zm11.096-9.006h-.209l.779-.969 1.843 1.425c-.152.171-.475.342-.893.437v13.091c0 1.14-.247 1.843-2.28 2.052-.038-.475-.152-.874-.418-1.121-.285-.228-.779-.418-1.672-.551v-.285s1.995.152 2.375.152c.361 0 .475-.133.475-.418V26.427Zm-6.099.076h1.501v15.39c0 .114-.475.475-1.254.475h-.247V26.503ZM116.367 41v-.57l2.717-.247h.228V41h-2.945Zm1.9 0c.038-2.109.038-4.256.038-6.213v-1.216c0-2.166 0-4.351-.038-6.46h2.071c-.057 2.128-.057 4.275-.057 6.593v1.14c0 1.862 0 4.028.057 6.156h-2.071Zm1.045 0v-.665h6.707l-.95.513.76-3.648h.855l-.095 3.8h-7.277Zm-2.945-13.3v-.589h5.947v.589l-2.755.209h-.475l-2.717-.209ZM128.149 41v-.57l2.717-.247h.437l2.717.247V41h-5.871Zm1.9 0c.057-2.109.057-4.256.057-6.441v-.988c0-2.166 0-4.332-.057-6.46h2.071c-.038 2.109-.038 4.275-.038 6.46v.988c0 2.147 0 4.313.038 6.441h-2.071Zm-1.9-13.3v-.589h5.871v.589l-2.717.209h-.437l-2.717-.209Zm7.66 13.3v-.57l2.014-.247h.437l2.508.247V41h-4.959Zm1.824 0V27.567h.684l.114 7.695V41h-.798Zm6.935-13.3v-.589h4.94v.589l-1.995.209h-.437l-2.508-.209Zm2.09 13.414-8.512-12.483-.038-.038-.513-.779-1.786-.114v-.589h3.591l7.904 11.628-.342.133-.038-5.662v-6.099h.722v14.003h-.988Zm4.406-.114v-.57l2.717-.247h.228V41h-2.945Zm1.9 0c.038-2.109.038-4.256.038-6.441v-.988c0-2.166 0-4.332-.038-6.46h2.071c-.057 2.109-.057 4.275-.057 6.631v.456c0 2.508 0 4.674.057 6.802h-2.071Zm1.045 0v-.665h7.144l-.988.532.722-3.42h.855L161.647 41h-7.638Zm0-6.726v-.646h4.598v.646h-4.598Zm4.446 1.938-.266-2.109v-.399l.266-2.071h.722v4.579h-.722Zm-7.391-8.512v-.589h2.945v.798h-.228l-2.717-.209Zm9.462 2.888-.703-3.363.988.57h-6.802v-.684h7.296l.095 3.477h-.874ZM56.445 55.061c.741.722 1.159 1.159 2.546 1.159 1.71-.038 4.18-.779 5.339-1.273.76-.323.912-.532 1.197-.532.475 0 .931.171.931.627 0 .247-.171.456-.57.646-1.064.532-4.503 1.672-7.22 1.672-1.558 0-1.881-.57-2.565-2.071l.342-.228Zm7.733 10.203c0 .513-.247.836-.703.836-.399 0-.76-.228-.76-.817 0-.608.133-1.995.095-3.249-.057-1.672-.361-2.28-1.349-2.28-1.026 0-2.261 1.14-3.021 1.976-.684.76-1.235 1.729-1.748 1.748-.456.019-.722-.361-.741-.893 0-.57.684-1.007 1.501-1.881 1.976-1.976 3.553-4.826 3.857-6.251.095-.342.038-.494-.304-.665-.247-.133-.646-.247-1.102-.342v-.323c.399-.133.855-.266 1.178-.266.646 0 1.976.323 1.976.836 0 .266-.152.399-.361.817-.209.418-.551 1.121-.855 1.71-.475.855-1.064 1.938-2.185 3.42-.095.095-.019.19.114.114.608-.342 1.311-.665 2.071-.665 1.273 0 2.033.874 2.185 2.394.152 1.159.152 2.964.152 3.781Zm3.553-7.828c.76.114 1.178.228 1.539.475.532.342 1.159 1.064 1.159 1.653 0 .418-.285.437-1.102.684-1.691.494-4.446 1.539-6.194 2.489-1.919 1.045-3.401 2.28-3.401 3.439 0 .969 1.064 1.482 2.888 1.482 2.812 0 3.933-.608 4.788-.608.741 0 1.235.209 1.235.703 0 .361-.133.627-.779.798-.684.209-2.641.513-4.256.513-3.591 0-4.75-1.159-4.75-2.698 0-1.653 2.071-3.325 4.389-4.731 1.539-.912 3.838-1.862 5.092-2.546.323-.171.361-.361.114-.665-.19-.228-.57-.475-.931-.665l.209-.323Zm7.505-4.066h5.491v.551h-5.32l-.171-.551Zm-1.729 15.124h14.136l1.045-1.349s1.178.95 1.919 1.596c-.057.209-.247.304-.513.304H73.678l-.171-.551Zm5.13-10.355h4.237l.893-1.121s1.026.798 1.653 1.387c-.057.19-.247.285-.513.285h-6.118l-.152-.551Zm1.159-4.769h-.209l.95-.893 1.577 1.406c-.133.171-.342.209-.798.247-1.444 3.135-4.142 5.985-8.208 7.6l-.19-.266c3.287-1.862 5.814-4.959 6.878-8.094Zm-5.149 1.672c4.541.551 3.325 3.648 1.748 2.622-.19-.893-1.102-1.919-1.9-2.451l.152-.171Zm8.151-3.04c1.273 3.914 4.617 6.707 8.284 8.113l-.057.19c-.646.076-1.178.513-1.444 1.235-3.439-1.862-5.985-4.94-7.106-9.367l.323-.171Zm4.066.703 1.748 1.14c-.133.171-.285.247-.703.133a23.049 23.049 0 0 1-3.477 2.033l-.228-.228c.95-.874 2.09-2.242 2.66-3.078Zm2.052 2.09 1.748 1.159c-.114.19-.285.247-.703.152-.874.57-2.356 1.368-3.648 1.9l-.228-.247c1.007-.817 2.223-2.128 2.831-2.964ZM78.162 65.017c3.876 1.33 2.337 4.237.931 3.021-.019-.969-.57-2.166-1.121-2.907l.19-.114Zm6.061-.076 2.185.76c-.076.209-.304.361-.722.342-.608.779-1.558 1.919-2.451 2.755h-.323c.437-1.064.988-2.717 1.311-3.857Zm-6.65-1.254h8.835v.57h-8.835v-.57Zm-.722-3.23v-.703l1.634.703h7.714v.532H78.39v3.8c0 .133-.684.475-1.311.475h-.228v-4.807Zm8.683 0h-.19l.779-.836 1.672 1.254c-.095.133-.361.285-.684.342v3.382c-.019.114-.817.418-1.33.418h-.247v-4.56Zm13.889-1.672h8.341l.76-1.121s.874.798 1.368 1.368c-.038.209-.228.304-.475.304h-9.842l-.152-.551Zm.741 1.52c3.781 1.425 2.489 3.971 1.235 2.945-.133-.931-.836-2.09-1.444-2.812l.209-.133Zm-1.577 6.536c.893-.513 3.04-1.919 5.149-3.382l.152.228c-.836.912-2.071 2.299-3.705 3.971 0 .228-.076.475-.228.589l-1.368-1.406Zm1.862-13.604h6.536v.532h-6.365l-.171-.532Zm.456 2.717h6.156v.551h-6.004l-.152-.551Zm5.301-2.717h-.171l.76-.798 1.558 1.197c-.114.133-.38.266-.703.342v5.111h-1.444v-5.852Zm-1.064 6.536c.722 4.028 2.698 5.909 4.807 7.049l-.038.19c-.57.133-1.007.646-1.197 1.368-2.033-1.805-3.23-4.009-3.762-8.531l.19-.076Zm2.869.342 1.786 1.007c-.076.152-.342.323-.722.19-.627.608-1.843 1.596-2.907 2.299l-.209-.171c.722-.969 1.653-2.508 2.052-3.325Zm-4.351-1.292h1.482v8.645c0 1.102-.247 1.9-1.976 2.071-.019-.456-.095-.855-.304-1.083-.209-.247-.57-.418-1.273-.494v-.285s1.387.095 1.71.095c.285 0 .361-.095.361-.342v-8.607Zm-7.22-5.7c-.855 1.9-2.489 4.351-4.408 5.814l-.247-.171c1.444-1.71 2.812-4.75 3.306-6.707l2.09.684c-.057.228-.266.342-.741.38Zm-.38-.152c5.13 1.653 3.496 4.256 2.28 3.344-.399-.912-1.311-2.242-2.565-3.306l.285-.038Zm-2.489 4.598h3.173l.817-1.102s.95.779 1.52 1.349c-.057.209-.247.304-.494.304h-4.864l-.152-.551Zm-1.216 2.945h4.978l.855-1.14s.931.817 1.501 1.406c-.038.19-.209.285-.475.285h-6.707l-.152-.551Zm2.831-2.945h1.33v9.576l-1.33.342v-9.918Zm-3.059 10.127c1.292-.304 4.332-1.197 7.429-2.166l.076.247c-1.33.76-3.268 1.805-5.966 3.135-.076.228-.209.418-.399.494l-1.14-1.71Zm5.529-5.795 1.919.551c-.076.228-.285.399-.684.418-.418.988-.969 2.147-1.539 2.945l-.323-.114c.228-1.007.475-2.508.627-3.8Zm-4.56.133c2.603 2.584 1.178 5.035.19 3.838.133-1.197-.152-2.736-.475-3.781l.285-.057Zm18.981-5.871.342-.133c.494.665.836 1.197 1.501 1.197.836.019 5.7-.684 7.6-.874 3.591-.38 4.636-.589 5.016-.589.76 0 1.843.418 1.843 1.102 0 .437-.228.551-.665.551-.703 0-2.109-.475-6.042-.133-2.204.19-4.541.703-5.795 1.026-.874.228-1.254.551-1.805.551-.665 0-1.615-.893-1.824-1.482-.133-.361-.152-.817-.171-1.216Zm6.783-2.242-.057-.342c.38-.228.893-.494 1.425-.494.855 0 2.109.456 2.109.969 0 .456-.304.779-.342 1.254-.076.893-.076 3.895-.019 5.776l-1.14-1.083c0-.931-.152-3.914-.285-5.301-.019-.38-.114-.475-.418-.589-.304-.095-.722-.133-1.273-.19Zm1.197 5.51c1.9 0 2.698 1.425 2.698 3.344 0 3.61-2.793 5.7-6.612 6.517l-.228-.437c2.318-.855 4.237-2.147 4.94-3.99-1.881.76-3.363-.741-3.363-2.679 0-1.463 1.007-2.755 2.565-2.755Zm-.209 4.389c.95 0 1.387-.475 1.387-1.729 0-1.14-.551-1.824-1.349-1.824-.95 0-1.558.817-1.558 1.805 0 1.026.646 1.748 1.52 1.748Zm15.2-9.918c.247.551.57 1.121 1.064 1.121.741 0 3.021-.57 3.933-.836.513-.171.551-.399.855-.399.665 0 1.824.931 1.824 1.52 0 .418-.494.475-1.159 1.007-1.045.817-3.515 3.135-4.332 4.028-.152.152-.076.285.095.228.817-.304 1.919-.665 3.249-.665 2.489 0 4.617 1.615 4.56 4.313-.038 2.432-2.185 4.408-5.89 4.408-2.147 0-3.648-.893-3.648-2.337 0-1.083.969-1.862 2.242-1.862 1.425 0 2.983.912 3.211 3.002l-1.311.209c-.171-1.577-1.083-2.47-2.242-2.47-.684 0-1.178.399-1.178 1.007 0 .665.836 1.216 2.565 1.216 3.268 0 4.788-1.672 4.807-3.572.057-1.672-1.178-3.23-3.458-3.23-2.698 0-4.598 1.767-6.194 3.819-.323.437-.494.551-.836.551-.285-.019-.608-.361-.57-.912.019-.38.228-.684.703-1.178 2.679-2.736 6.27-6.156 7.106-7.467.228-.304.095-.399-.152-.361-.646.133-2.147.722-2.945 1.083-.361.171-.646.475-.969.475-.836 0-1.596-.969-1.71-1.539a3.194 3.194 0 0 1 .038-1.121l.342-.038Z"/><circle cx="183" cy="46" r="9" fill="#fff"/><path stroke="#00B097" stroke-linecap="round" stroke-linejoin="bevel" d="m181.826 43.26 3.131 2.995-3.131 3.267"/></svg>