<svg xmlns="http://www.w3.org/2000/svg" width="202" height="92" fill="none"><rect width="202" height="92" fill="#00B097" rx="10"/><path fill="#fff" d="m55.773 41.114-3.99-14.003h2.052l3.211 12.084h-.342l.095-.285 3.477-11.799h1.064l3.553 12.16h-.323l.076-.323 3.116-11.837h.855l-3.895 14.003h-1.064l-3.61-11.97h.342l-.076.285-3.477 11.685h-1.064ZM50.396 27.7v-.589h5.567v.589l-2.565.209h-.475l-2.527-.209Zm7.752 0v-.589h5.491v.589l-2.432.209h-.722l-2.337-.209Zm7.505 0v-.589h4.617v.589l-2.109.209h-.418l-2.09-.209ZM71.362 41v-.57l2.717-.247h.228V41h-2.945Zm1.9 0c.038-2.109.038-4.256.038-6.441v-.988c0-2.166 0-4.332-.038-6.46h2.07c-.056 2.109-.056 4.275-.056 6.631v.456c0 2.508 0 4.674.057 6.802h-2.071Zm1.045 0v-.665h7.144l-.988.532.722-3.42h.855L81.945 41h-7.638Zm0-6.726v-.646h4.598v.646h-4.598Zm4.446 1.938-.266-2.109v-.399l.266-2.071h.722v4.579h-.722ZM71.362 27.7v-.589h2.945v.798h-.228l-2.717-.209Zm9.462 2.888-.703-3.363.988.57h-6.802v-.684h7.296l.095 3.477h-.874ZM83.83 41v-.57l2.717-.247h.228V41H83.83Zm1.9 0c.038-2.147.038-4.332.038-6.536v-.95c0-2.147 0-4.275-.038-6.403h2.052c-.057 2.109-.057 4.237-.057 6.498v.361c0 2.679 0 4.864.057 7.03H85.73Zm1.045 0v-.627h2.527c2.337 0 3.705-1.102 3.705-3.135 0-2.09-1.235-3.173-4.009-3.173h-2.223v-.608h2.033c2.375 0 3.553-1.102 3.553-3.021 0-1.691-.912-2.679-3.268-2.679h-2.318v-.646h2.87c3.23 0 4.616 1.349 4.616 3.287 0 1.634-1.178 3.059-4.389 3.382l.095-.171c3.591.171 5.054 1.596 5.054 3.61 0 1.938-1.444 3.781-5.586 3.781h-2.66ZM83.83 27.7v-.589h2.945v.798h-.228L83.83 27.7Zm20.666 4.636h1.577v8.075c0 1.159-.342 1.976-2.603 2.166-.038-.494-.209-.893-.532-1.14-.38-.247-.988-.437-2.166-.589v-.266s2.698.171 3.211.171c.399 0 .513-.133.513-.399v-8.018Zm-2.793-3.914c7.163 1.083 6.156 4.807 4.446 3.933-.589-.969-2.242-2.565-4.56-3.667l.114-.266Zm7.923-1.938h-.228l1.026-.95 1.653 1.577c-.152.152-.38.19-.836.209-1.406.931-4.123 2.109-5.947 2.736l-.19-.171c1.425-.874 3.591-2.432 4.522-3.401Zm2.09 5.852h-.228l1.007-.969 1.691 1.634c-.133.133-.361.19-.798.209-1.045 1.216-3.059 2.85-4.579 3.819l-.209-.171c1.045-1.197 2.508-3.249 3.116-4.522ZM98.72 26.484h11.552v.532H98.891l-.171-.532Zm-2.223 5.852h16.112v.551H96.668l-.171-.551Zm28.652-7.22 2.223.646c-.076.228-.285.399-.684.399-.874 2.584-2.128 4.959-3.648 6.536l-.266-.171c.988-1.862 1.919-4.674 2.375-7.41Zm.057 7.011c4.503 2.128 3.097 5.472 1.615 4.18-.095-1.349-1.007-3.002-1.824-4.047l.209-.133Zm-.038-3.059h6.327v.57h-6.631l.304-.57Zm5.548 0h-.209l.893-.931 1.653 1.387c-.152.171-.418.285-.836.342-.171 6.251-.57 10.583-1.577 11.704-.608.646-1.406.931-2.508.931 0-.475-.095-.912-.399-1.14-.361-.266-1.33-.513-2.261-.684l.038-.323c1.007.114 2.641.247 3.135.247.399 0 .57-.057.798-.266.76-.703 1.121-5.358 1.273-11.267Zm-11.989-4.047 2.109.741c-.076.209-.304.38-.703.342-.76 1.178-1.748 2.394-2.622 3.192l-.304-.171c.513-1.007 1.083-2.641 1.52-4.104Zm2.071 2.242 2.052.817c-.095.209-.342.361-.741.304-1.007 1.558-2.755 3.705-4.389 5.244h-.399c1.235-1.786 2.679-4.427 3.477-6.365Zm-5.263 5.928c1.178-.019 3.952-.209 6.802-.437l.038.323c-1.406.342-3.306.817-5.871 1.349-.095.247-.285.38-.494.399l-.475-1.634Zm.399-5.149c4.047 1.007 3.078 3.743 1.729 2.869-.247-.95-1.159-2.052-1.919-2.698l.19-.171Zm4.845 3.173c3.933 1.805 2.66 4.56 1.349 3.477-.152-1.083-.931-2.47-1.577-3.363l.228-.114Zm.247 4.18c3.686 2.166 2.261 4.94.988 3.743-.076-1.178-.684-2.66-1.216-3.648l.228-.095Zm-2.204-1.9 1.425-.114v8.702c0 .114-.475.456-1.178.456h-.247v-9.044Zm-2.071 1.995 1.938.494c-.057.228-.266.399-.665.418-.551 1.71-1.349 3.401-2.318 4.522l-.304-.171c.589-1.349 1.121-3.363 1.349-5.263Zm24.586-5.282.247-.247c.817.608 1.634.95 2.641.95 1.9 0 3.496-.475 4.275-.779.95-.361 1.292-.589 1.444-.589.475.019 1.121.266 1.121.703 0 .437-.266.589-.969.855-.969.342-3.572 1.007-5.757 1.007-1.178 0-2.014-.247-3.002-1.9Zm3.344-2.793-.057-.38c.437-.209 1.045-.456 1.482-.456.95 0 2.014.551 2.014 1.026 0 .399-.19.532-.304 1.33-.152.665-.228 1.805-.228 3.002 0 2.926.399 5.529.399 6.84 0 1.558-.969 2.565-3.363 2.565-1.691 0-3.097-.817-3.097-2.261 0-1.691 1.748-2.451 3.838-2.451 3.021 0 4.788 1.235 5.662 2.052.38.361.608.741.608 1.121 0 .456-.209.722-.589.722-.342 0-.57-.247-1.007-.665-1.463-1.368-3.021-2.261-5.377-2.261-1.14 0-2.375.494-2.375 1.368 0 .798.855 1.14 1.919 1.14 2.033 0 2.432-.722 2.432-2.204 0-1.083-.209-3.857-.247-5.985 0-1.102.019-2.888.019-3.553 0-.551-.114-.646-.399-.741-.361-.114-.836-.171-1.33-.209Zm-8.493-.589.266-.228c.494.171.741.266 1.121.57.456.323 1.387 1.33 1.387 2.204 0 .456-.285.798-.741 1.862-.532 1.14-1.311 3.078-1.311 5.035 0 .893.133 1.406.304 1.767.133.228.304.266.475 0 .399-.665 1.444-3.059 1.9-4.028l.437.209c-.361 1.007-1.121 3.097-1.349 3.8-.171.646-.285 1.045-.285 1.349 0 .608.304 1.216.304 1.71 0 .456-.247.722-.665.722-.38 0-.722-.304-1.007-.76-.57-.817-1.14-2.527-1.14-4.522 0-2.128.57-4.123.893-5.263.247-.912.475-1.615.475-2.299.019-.741-.456-1.406-1.064-2.128ZM77.769 54.871c1.216 1.672 2.66 1.843 4.807 1.843.247.019.266.076.076.209-.646.456-1.767 1.235-2.66 1.824l.209.361c1.425-.684 3.154-1.501 4.161-1.824.874-.304 1.501-.399 2.033-.494.532-.114.76-.304.76-.684 0-.513-1.121-.95-1.881-.95-.798 0-1.235.418-3.572.418-1.501 0-2.394-.152-3.667-1.007l-.266.304Zm-.19 7.448c.038 2.489.627 4.294 4.826 4.294 3.173 0 4.579-.76 5.092-.76.532 0 1.273.285 1.273.817 0 .418-.209.608-.855.836-.912.323-2.66.627-5.187.627-5.035 0-6.403-2.375-5.624-5.795l.475-.019Zm16.511-6.631c1.045 1.007 1.862 1.292 3.078 1.292 1.919 0 4.389-.608 5.643-1.254.722-.38 1.083-.608 1.368-.608.418 0 1.14.133 1.14.684 0 .38-.475.703-1.197.988-1.102.418-4.123 1.368-7.106 1.368-1.615 0-2.242-.228-3.249-2.242l.323-.228Zm3.23-2.014-.019-.38c.456-.133.855-.228 1.273-.228.969 0 2.128.57 2.128 1.045 0 .418-.399.532-.589 1.178-.152.57-.342 1.273-.589 2.299-.38 1.482-1.064 3.971-1.349 5.016-.095.361-.095.456.266.171 1.824-1.311 3.458-2.166 5.415-2.166 2.869 0 4.218 1.729 4.218 3.686 0 3.515-4.921 4.864-9.405 4.541l-.038-.475a14.82 14.82 0 0 0 3.838-.646c3.192-.95 4.047-2.451 4.047-3.838 0-1.558-1.178-2.584-2.755-2.584-2.09 0-4.218 1.786-5.548 3.325-.304.361-.57 1.083-.988 1.083-.456 0-.931-.817-.931-1.463 0-.304.152-.38.418-1.026.456-1.083 1.273-4.218 1.577-5.624.266-1.14.513-2.413.551-2.964.038-.399-.076-.494-.38-.627s-.665-.209-1.14-.323Zm20.045-.076.114-.38c1.805.095 2.831.494 3.534.969.893.57 1.254 1.197 1.254 1.995 0 .494-.228.76-.684.76-.532 0-.76-.152-1.615-.152-1.026 0-2.318.266-2.793.361-.304.076-.399.209-.399.38 0 .247.247.741.266 1.159.019.494-.152.969-.304 1.634-.171.817-.418 1.748-.399 2.584 0 .209.114.228.266.133 1.881-1.52 4.161-2.66 6.327-2.66 2.907 0 4.313 1.919 4.313 3.876 0 3.496-5.187 4.902-9.671 4.598l-.038-.456c1.387-.095 2.793-.361 3.667-.627 3.439-1.007 4.446-2.546 4.446-3.99 0-1.577-1.216-2.698-2.85-2.698-2.128 0-4.37 1.843-5.757 3.458-.323.418-.57 1.045-1.007 1.045-.266 0-.494-.133-.779-.456-.247-.285-.399-.665-.399-.969 0-.323.133-.76.209-1.292.133-1.064.456-2.793.589-3.724.114-.722.057-1.159.057-1.596 0-.437.171-.836.798-.969.95-.228 2.774-.646 3.496-.95.266-.095.304-.285.038-.589-.494-.646-1.501-1.064-2.679-1.444Z"/><circle cx="183" cy="46" r="9" fill="#fff"/><path stroke="#00B097" stroke-linecap="round" stroke-linejoin="bevel" d="m181.826 43.26 3.131 2.995-3.131 3.267"/></svg>